#!OML:ASF X:\für Bonn\!DataBase\2005_08_10_Bjorn_Final\c3d\bjorn.ASF
:FULLY-SPECIFIED
:DEGREES
223
root 0.85339 17.6172 5.80838 -174.656 -8.75692 174.802
lowerback 6.32445 0.298988 -3.4413
upperback 12.94 -1.42636 -4.59309
thorax 10.1955 -1.61976 -3.20923
lowerneck -8.56157 -2.24443 -5.69756
upperneck 0.509061 -2.62724 3.7587
head 1.78863 -1.28424 2.09046
rclavicle 3.97569e-015 -1.35174e-014
rhumerus -33.4226 -14.2974 -90.6393
rradius 25.3535
rwrist 6.85497
rhand -12.496 19.9796
rfingers 7.12502
rthumb 13.579 -9.55762
lclavicle 3.97569e-015 -1.35174e-014
lhumerus -19.3965 -29.4235 74.4912
lradius 45.3583
lwrist -12.0672
lhand -37.9917 -14.3775
lfingers 7.12502
lthumb -11.0313 15.3126
rfemur -45.1101 1.18987 5.0158
rtibia 60.1748
rfoot -17.0108 6.0353
rtoes -20.7349
lfemur -0.00884615 8.85545 -19.9486
ltibia 38.2302
lfoot -31.9086 -3.02338
ltoes -27.664
224
root 0.84825 17.6613 5.77846 -174.201 -9.13684 174.69
lowerback 6.1635 0.189709 -3.53391
upperback 12.9168 -1.54395 -4.56378
thorax 10.2632 -1.67814 -3.13294
lowerneck -8.83159 -2.38853 -5.70956
upperneck 0.790522 -2.80709 3.86196
head 1.94256 -1.36906 2.11893
rclavicle -2.78299e-014 -1.03368e-014
rhumerus -33.7356 -13.4181 -90.9039
rradius 25.9533
rwrist 6.68587
rhand -12.7126 19.8057
rfingers 7.12502
rthumb 13.3702 -9.74527
lclavicle -2.78299e-014 -1.03368e-014
lhumerus -20.1228 -29.8622 75.5299
lradius 45.7109
lwrist -12.8762
lhand -38.5874 -14.6328
lfingers 7.12502
lthumb -11.6058 15.0258
rfemur -45.2908 0.786127 4.89565
rtibia 59.9526
rfoot -16.6674 6.47319
rtoes -20.5082
lfemur -0.2416 8.69138 -20.0337
ltibia 37.7371
lfoot -31.3965 -3.51457
ltoes -27.178
225
root 0.845787 17.7143 5.74573 -173.762 -9.54867 174.705
lowerback 6.0873 0.0714258 -3.47295
upperback 12.867 -1.67338 -4.53104
thorax 10.2463 -1.72512 -3.13207
lowerneck -9.10413 -2.54191 -5.64942
upperneck 1.11843 -3.00646 3.9514
head 2.11251 -1.46265 2.12832
rclavicle 1.59028e-014 -3.18055e-015
rhumerus -34.135 -12.6482 -91.1766
rradius 26.5998
rwrist 6.57068
rhand -12.9844 19.5714
rfingers 7.12502
rthumb 13.1083 -9.99663
lclavicle 1.59028e-014 -3.18055e-015
lhumerus -20.8466 -30.2229 76.5216
lradius 46.2324
lwrist -13.495
lhand -38.8979 -14.8896
lfingers 7.12502
lthumb -11.9052 14.7519
rfemur -45.4283 0.364016 4.94587
rtibia 59.6673
rfoot -16.2826 6.97601
rtoes -20.2485
lfemur -0.465621 8.4772 -19.964
ltibia 37.2295
lfoot -30.8642 -4.019
ltoes -26.7718
226
root 0.845544 17.7732 5.7104 -173.265 -9.98312 174.744
lowerback 6.03917 -0.0540133 -3.36664
upperback 12.7603 -1.80176 -4.50521
thorax 10.1454 -1.76146 -3.15705
lowerneck -9.36217 -2.69934 -5.55947
upperneck 1.47952 -3.21595 4.039
head 2.29181 -1.56022 2.13068
rclavicle 2.94201e-014 6.67916e-014
rhumerus -34.6311 -12.0549 -91.4033
rradius 27.2474
rwrist 6.57885
rhand -13.2403 19.3194
rfingers 7.12502
rthumb 12.8616 -10.2643
lclavicle 2.94201e-014 6.67916e-014
lhumerus -21.5703 -30.5525 77.5218
lradius 46.8549
lwrist -13.7644
lhand -39.0424 -15.3295
lfingers 7.12502
lthumb -12.0445 14.3039
rfemur -45.6042 -0.116209 5.06367
rtibia 59.3291
rfoot -15.8646 7.52819
rtoes -20.109
lfemur -0.763489 8.28985 -19.8399
ltibia 36.7305
lfoot -30.1549 -4.64673
ltoes -26.2589
227
root 0.846981 17.8356 5.67257 -172.77 -10.4103 174.755
lowerback 6.0281 -0.159836 -3.26872
upperback 12.6397 -1.90539 -4.49557
thorax 10.0071 -1.786 -3.1913
lowerneck -9.57987 -2.86712 -5.45449
upperneck 1.84785 -3.44459 4.1369
head 2.46818 -1.66625 2.13222
rclavicle 1.90833e-014 4.77083e-014
rhumerus -35.1552 -11.6515 -91.5687
rradius 27.8227
rwrist 6.72836
rhand -13.4212 19.026
rfingers 7.12502
rthumb 12.6872 -10.5686
lclavicle 1.90833e-014 4.77083e-014
lhumerus -22.2636 -30.9685 78.5175
lradius 47.5568
lwrist -13.7887
lhand -39.2314 -15.7445
lfingers 7.12502
lthumb -12.2268 13.8781
rfemur -45.7626 -0.663707 5.19622
rtibia 58.9412
rfoot -15.3087 8.22405
rtoes -19.7174
lfemur -1.04598 8.05993 -19.7416
ltibia 36.2467
lfoot -29.2543 -5.34389
ltoes -25.5638
228
root 0.851493 17.9015 5.63338 -172.266 -10.8442 174.761
lowerback 6.04611 -0.254821 -3.15761
upperback 12.4895 -1.99107 -4.49866
thorax 9.81738 -1.79826 -3.24197
lowerneck -9.65825 -3.03835 -5.37198
upperneck 2.15648 -3.68457 4.28152
head 2.60218 -1.77696 2.15287
rclavicle 7.95139e-015 7.95139e-016
rhumerus -35.6913 -11.3493 -91.7133
rradius 28.3131
rwrist 6.89976
rhand -13.5085 18.6929
rfingers 7.12502
rthumb 12.603 -10.9069
lclavicle 7.95139e-015 7.95139e-016
lhumerus -22.9854 -31.4658 79.5159
lradius 48.2551
lwrist -13.7335
lhand -39.5294 -16.1527
lfingers 7.12502
lthumb -12.5141 13.4526
rfemur -45.9328 -1.23541 5.36573
rtibia 58.5428
rfoot -14.6292 9.01563
rtoes -19.2038
lfemur -1.38072 7.86332 -19.6166
ltibia 35.8486
lfoot -28.354 -5.98023
ltoes -25.2424
229
root 0.858443 17.9699 5.59376 -171.749 -11.298 174.747
lowerback 6.11178 -0.342423 -3.06415
upperback 12.3058 -2.06495 -4.4959
thorax 9.56282 -1.80511 -3.27079
lowerneck -9.59757 -3.21693 -5.343
upperneck 2.3948 -3.93713 4.47324
head 2.69089 -1.89382 2.1988
rclavicle -2.22639e-014 -6.2816e-014
rhumerus -36.2151 -11.0621 -91.8225
rradius 28.6616
rwrist 7.0185
rhand -13.5708 18.3968
rfingers 7.12502
rthumb 12.5429 -11.2067
lclavicle -2.22639e-014 -6.2816e-014
lhumerus -23.7768 -32.0896 80.5472
lradius 48.9502
lwrist -13.6221
lhand -39.9748 -16.5255
lfingers 7.12502
lthumb -12.9435 13.053
rfemur -46.1115 -1.85606 5.56046
rtibia 58.1107
rfoot -13.9474 9.84922
rtoes -18.6345
lfemur -1.73757 7.66775 -19.4793
ltibia 35.4737
lfoot -27.3977 -6.77615
ltoes -24.4192
